<?xml version="1.0" standalone="no"?>
<!DOCTYPE svg PUBLIC "-//W3C//DTD SVG 20010904//EN"
 "http://www.w3.org/TR/2001/REC-SVG-20010904/DTD/svg10.dtd">
<svg version="1.0" xmlns="http://www.w3.org/2000/svg"
 width="564.000000pt" height="564.000000pt" viewBox="0 0 564.000000 564.000000"
 preserveAspectRatio="xMidYMid meet">
<metadata>
Created by potrace 1.14, written by Peter Selinger 2001-2017
</metadata>
<g transform="translate(0.000000,564.000000) scale(0.100000,-0.100000)"
fill="#000000" stroke="none">
<path d="M0 5547 l0 -93 515 -344 c283 -190 785 -526 1116 -747 330 -221 620
-420 644 -441 23 -22 68 -57 99 -77 30 -21 53 -41 50 -46 -3 -5 11 -23 31 -41
l37 -32 -96 -34 c-53 -19 -96 -39 -96 -44 0 -5 8 -8 18 -6 9 2 17 -3 17 -11 0
-27 -168 -58 -287 -54 -84 4 -123 0 -213 -21 -191 -44 -407 -96 -485 -116 -65
-18 -380 -94 -538 -130 -63 -15 -58 -23 21 -38 46 -9 72 -9 125 3 77 16 568
129 913 209 257 60 331 72 519 86 69 5 149 12 178 16 l53 6 -3 -38 c-2 -29 -7
-38 -19 -36 -9 1 -39 -7 -65 -19 -27 -12 -62 -25 -79 -28 -51 -11 -41 -34 34
-79 39 -23 77 -42 84 -42 20 0 33 -21 31 -48 -1 -16 3 -22 13 -18 8 3 17 6 19
6 3 0 0 9 -6 20 -13 24 5 28 18 4 11 -20 67 -11 76 12 7 17 36 19 36 2 1 -7 8
0 16 15 8 15 19 25 25 22 12 -8 49 4 49 15 0 6 -12 13 -26 16 -31 8 -87 114
-80 153 2 14 5 33 5 41 1 22 598 20 756 -3 110 -16 273 -33 590 -62 94 -8 193
-17 220 -20 28 -3 174 -17 325 -30 527 -48 915 -85 958 -91 37 -5 42 -3 42 15
0 17 -9 20 -67 26 -38 3 -77 10 -88 15 -27 12 -222 33 -235 25 -12 -7 -409 33
-435 44 -25 11 -234 33 -246 25 -12 -7 -453 37 -459 46 -5 8 -201 27 -275 27
-177 1 -640 35 -653 48 -2 2 -1 9 3 15 5 8 22 10 51 5 28 -4 44 -2 44 4 0 13
-2 13 -205 46 -87 14 -161 27 -162 29 -2 2 3 9 12 16 53 44 -34 78 -230 90
-71 4 -141 11 -155 15 -24 8 -24 8 4 -16 52 -45 24 -51 -36 -9 l-57 41 15 41
c8 22 14 46 14 52 0 12 -26 33 -290 233 -393 298 -676 514 -807 615 -76 59
-259 200 -408 313 -148 113 -355 270 -459 350 l-189 145 -163 0 -164 0 0 -93z
m2780 -1857 c13 -8 13 -11 -2 -22 -9 -7 -18 -22 -21 -33 -3 -11 -5 -1 -6 23
-1 43 3 48 29 32z m240 -20 l55 -8 -76 -1 c-87 -1 -141 7 -133 20 5 9 28 7
154 -11z m-420 -185 c0 -4 -46 -81 -55 -93 -1 -1 -23 10 -49 24 -26 14 -45 28
-43 30 2 2 28 13 58 23 54 20 89 26 89 16z"/>
<path d="M2648 3883 c7 -3 16 -2 19 1 4 3 -2 6 -13 5 -11 0 -14 -3 -6 -6z"/>
<path d="M2698 3883 c12 -2 30 -2 40 0 9 3 -1 5 -23 4 -22 0 -30 -2 -17 -4z"/>
<path d="M4200 3408 c-63 -77 -84 -95 -134 -118 -55 -24 -65 -25 -135 -17 -84
9 -624 3 -657 -8 -17 -5 -28 5 -67 61 -51 74 -62 73 -22 -2 l25 -47 -43 7
c-23 4 -53 10 -67 13 l-25 6 29 -31 c26 -28 27 -31 9 -40 -10 -6 -36 -13 -58
-17 -114 -19 -195 -51 -195 -75 0 -4 15 -11 33 -14 17 -4 41 -13 51 -21 19
-15 19 -15 -2 -15 -14 0 -26 -9 -32 -22 -5 -13 -9 -17 -9 -9 -1 11 -5 10 -16
-5 -10 -13 -14 -14 -15 -5 0 11 -3 11 -15 1 -8 -7 -15 -9 -15 -4 0 5 -7 0 -15
-10 -15 -20 -15 -20 -15 0 -1 24 -30 -40 -30 -66 0 -33 -27 -46 -132 -64 -56
-9 -107 -22 -113 -28 -7 -7 -1 -8 20 -4 96 18 158 27 162 23 2 -3 -15 -8 -39
-12 -23 -4 -47 -14 -53 -21 -5 -8 -19 -15 -31 -17 -39 -5 -72 -35 -82 -74
l-10 -38 -2 45 -2 45 -10 -35 c-6 -20 -8 -96 -6 -175 5 -151 18 -198 61 -214
12 -4 75 -3 141 3 140 14 122 33 160 -174 25 -133 78 -302 113 -357 12 -21 12
-23 -10 -23 -13 0 -28 5 -35 12 -7 7 -12 8 -12 2 0 -5 -8 -10 -17 -11 -57 -6
-68 -10 -65 -23 3 -12 0 -11 -15 1 -11 10 -38 16 -70 17 -44 0 -51 -2 -47 -16
5 -16 4 -16 -8 -1 -12 15 -37 17 -123 10 -18 -1 -18 -2 -2 -18 15 -16 38 -18
172 -18 97 0 155 4 155 10 0 6 5 2 11 -7 10 -18 39 -25 39 -10 0 4 19 7 43 7
38 -1 48 -6 87 -50 25 -28 52 -56 60 -62 13 -11 12 -12 -4 -7 -10 4 -21 3 -25
-2 -3 -5 -50 -7 -106 -3 -55 3 -155 5 -223 5 -67 -1 -122 3 -122 8 0 4 -12 5
-26 2 -19 -5 -24 -4 -18 5 5 9 2 10 -9 6 -9 -3 -31 -2 -49 4 -18 5 -62 11 -98
14 -71 5 -255 55 -293 80 -14 9 -29 15 -33 14 -5 -1 -22 4 -39 11 -16 7 -33
13 -37 12 -4 -1 -27 22 -53 51 -63 72 -75 119 -75 289 0 114 -3 140 -15 144
-8 4 -15 15 -15 25 0 10 -4 19 -9 19 -15 0 -41 -30 -41 -46 0 -27 -39 -15 -56
17 l-16 31 -146 -7 c-81 -4 -155 -12 -166 -17 -10 -6 -34 -7 -55 -2 -59 12
-71 11 -71 -3 0 -7 -7 -13 -15 -13 -17 0 -20 -16 -4 -25 6 -5 4 -12 -8 -22
-13 -10 -15 -16 -6 -19 17 -7 16 -24 -1 -24 -15 0 -30 42 -28 80 2 23 1 23 -7
5 -13 -27 -13 -68 -1 -60 6 3 10 -1 10 -9 0 -9 -7 -16 -15 -16 -11 0 -15 11
-15 40 0 29 -4 40 -15 40 -11 0 -15 -11 -15 -37 0 -29 3 -35 11 -23 8 13 10
12 7 -3 -5 -31 -23 -19 -28 19 -3 21 -12 40 -20 42 -13 4 -13 3 -2 -11 15 -18
13 -73 -3 -70 -5 1 -11 7 -14 14 -2 7 1 9 8 5 14 -9 14 4 -1 37 -15 30 -32 37
-23 8 6 -21 -20 -38 -29 -18 -2 7 -5 2 -5 -10 -1 -17 5 -23 19 -23 11 0 20 -4
20 -10 0 -35 -61 17 -66 58 -4 26 -25 30 -143 31 -64 1 -127 3 -141 6 -14 3
-58 8 -97 12 -40 3 -73 9 -73 13 0 4 39 10 88 13 48 4 96 8 107 11 11 2 74 7
140 10 66 4 152 11 190 16 187 25 357 42 362 36 3 -3 14 -1 24 5 13 6 19 6 19
-1 0 -5 5 -10 11 -10 5 0 7 5 4 10 -3 6 3 10 14 10 12 0 21 -6 21 -12 0 -9 3
-9 9 1 5 8 16 11 27 7 9 -4 20 -2 24 4 10 15 118 31 170 24 50 -7 39 -16 167
135 30 37 43 47 38 30 -7 -21 -6 -22 9 -10 9 7 16 19 16 26 0 7 7 18 16 25 8
8 20 22 26 33 12 23 -3 17 -39 -15 -27 -25 -24 -32 -58 171 -14 85 -28 158
-31 163 -12 19 -33 -23 -39 -78 -17 -166 -29 -233 -37 -228 -5 4 -9 -2 -8 -12
5 -45 -3 -45 -14 -1 l-11 49 -54 -79 c-50 -74 -55 -79 -89 -79 -21 0 -58 -4
-84 -8 -50 -7 -60 1 -33 28 21 20 19 26 -10 26 -23 0 -65 -34 -65 -52 0 -4 -5
-8 -11 -8 -5 0 -7 5 -4 10 3 6 2 10 -4 10 -5 0 -13 -5 -17 -11 -5 -8 -9 -8
-14 1 -4 6 -7 -7 -7 -29 0 -23 -3 -44 -5 -47 -8 -8 -179 -35 -202 -32 -13 2
-20 9 -18 20 2 13 -3 16 -20 12 -13 -2 -104 -16 -203 -30 -99 -13 -217 -31
-262 -37 -75 -12 -100 -9 -73 8 6 3 10 14 10 23 0 15 -2 15 -10 2 -9 -13 -12
-13 -23 2 -13 16 -16 16 -46 -3 -65 -39 -66 -39 -147 231 -40 135 -73 253 -74
263 0 19 -20 24 -20 5 0 -7 20 -116 45 -243 61 -319 59 -295 38 -311 -10 -7
-30 -14 -45 -14 -22 0 -28 5 -28 23 -5 289 -15 411 -34 404 -11 -4 -11 -41 2
-292 6 -114 5 -132 -10 -147 -15 -15 -15 -17 8 -22 16 -4 22 -11 17 -19 -4 -7
-6 -23 -4 -36 l3 -24 -97 6 c-86 5 -114 2 -175 -20 -30 -11 87 -33 176 -33
l91 0 7 -102 c3 -57 9 -129 12 -160 6 -56 7 -57 29 -42 22 14 22 14 18 -28 -5
-50 -42 -105 -75 -111 -21 -4 -20 -4 3 -6 20 -1 35 10 62 42 28 34 47 81 91
219 l57 176 57 -13 c31 -8 120 -29 197 -48 l140 -34 5 -49 5 -49 8 43 c4 24
13 42 20 42 18 0 317 -69 328 -76 5 -3 6 -45 2 -95 -8 -117 10 -118 28 -1 8
48 19 87 24 86 6 -1 106 -21 223 -44 l212 -43 0 -135 c0 -102 3 -133 13 -130
7 3 17 46 26 114 7 60 15 111 17 113 2 2 26 -17 53 -42 26 -25 71 -57 100 -71
28 -15 51 -28 51 -31 0 -2 -15 -12 -32 -21 -65 -33 -149 -118 -199 -199 l-50
-80 -117 0 c-103 0 -117 -2 -120 -18 -2 -10 4 -20 15 -24 10 -3 46 -31 79 -60
l62 -54 -36 -59 c-28 -48 -40 -60 -61 -61 -21 -1 -20 -3 9 -9 l35 -7 -28 -11
c-20 -8 -34 -9 -47 -2 -15 8 -23 5 -40 -12 -25 -28 -26 -27 10 -65 34 -36 105
-53 150 -36 41 15 915 -112 940 -137 10 -10 46 -23 82 -29 82 -14 101 -14 116
1 9 9 35 8 111 -1 l99 -13 33 29 c51 44 59 53 139 152 l75 93 75 -6 c41 -3
199 -18 350 -32 241 -23 277 -29 295 -46 20 -20 20 -20 -11 -15 -17 3 -78 8
-135 11 -82 4 -94 3 -59 -4 60 -13 357 -40 423 -39 52 1 52 1 13 9 -21 4 -48
5 -60 2 -21 -5 -21 -5 -1 15 19 19 27 20 114 12 114 -11 118 -9 247 123 156
160 194 207 194 238 l0 28 -113 7 -113 7 -18 69 c-18 70 -16 89 10 89 7 0 102
29 209 64 l196 64 57 -49 c53 -45 92 -62 92 -39 0 5 -14 32 -30 61 -17 28 -30
52 -28 54 2 1 35 14 73 29 148 58 284 166 298 236 7 32 -6 119 -23 149 -6 12
-26 22 -52 26 -37 6 -133 48 -148 65 -3 4 -30 19 -60 34 -30 15 -66 39 -81 52
-14 13 -31 24 -38 24 -10 0 -11 3 -2 14 9 11 4 20 -26 43 -21 17 -47 35 -58
41 -30 17 60 15 164 -3 94 -16 120 -34 148 -97 16 -36 39 -56 27 -23 -5 11 -2
14 12 9 16 -6 16 -4 -3 18 -13 13 -23 27 -23 30 0 2 32 18 70 33 39 16 68 30
67 32 -2 2 -41 -6 -86 -19 l-82 -21 -72 70 c-128 124 -395 351 -582 494 -61
47 -169 105 -285 154 -36 15 -66 28 -68 29 -1 2 25 63 58 136 33 73 60 137 60
141 0 26 -33 -1 -100 -83z m-913 -174 c-3 -3 -12 -4 -19 -1 -8 3 -5 6 6 6 11
1 17 -2 13 -5z m-42 -14 c-3 -5 -15 -10 -26 -10 -20 0 -71 -39 -65 -49 2 -3
-11 -7 -30 -8 -47 -4 -46 24 1 33 20 3 40 15 46 25 7 13 21 19 45 19 21 0 33
-4 29 -10z m818 -22 c19 -10 23 -43 6 -53 -6 -4 -8 -14 -5 -22 4 -9 1 -13 -6
-10 -7 2 -13 14 -13 26 0 16 -13 28 -53 46 -28 13 -52 27 -52 30 0 8 101 -6
123 -17z m-848 -8 c-3 -5 -16 -15 -28 -21 l-22 -12 20 21 c21 22 41 30 30 12z
m810 -38 c-3 -3 -11 0 -18 7 -9 10 -8 11 6 5 10 -3 15 -9 12 -12z m194 -11
c34 -18 34 -19 11 -26 -20 -6 -21 -9 -7 -17 9 -5 20 -10 23 -11 4 -1 25 -19
48 -39 42 -39 56 -46 56 -27 0 5 -4 7 -10 4 -5 -3 -10 1 -10 9 0 9 -5 16 -11
16 -5 0 -7 5 -4 11 5 7 16 3 31 -12 13 -12 21 -25 19 -30 -3 -4 0 -11 6 -15 8
-4 9 -3 5 4 -8 14 -4 15 18 6 23 -9 20 -24 -4 -24 -11 0 -20 -4 -20 -10 0 -11
20 -14 59 -11 13 1 31 -6 41 -17 10 -10 40 -37 67 -58 26 -21 78 -64 114 -94
36 -30 75 -62 85 -70 56 -45 149 -124 177 -150 l32 -31 -43 3 c-36 2 -41 5
-36 21 6 18 5 18 -20 1 -36 -23 -137 -13 -168 16 -12 11 -25 20 -28 20 -4 0
-26 18 -51 40 -24 22 -47 40 -51 40 -5 0 -27 17 -50 38 l-42 37 33 -58 c35
-62 35 -86 0 -46 -11 13 -18 19 -15 12 4 -7 -1 -9 -14 -6 -11 3 -20 10 -20 15
0 5 5 6 12 2 7 -4 8 -3 4 5 -4 6 -16 9 -27 6 -15 -5 -17 -3 -12 11 4 12 3 15
-5 10 -7 -4 -12 -1 -13 6 0 7 -18 27 -39 44 l-39 32 30 6 c17 3 36 3 43 0 6
-3 2 1 -9 10 -11 8 -27 21 -35 28 -8 7 -30 26 -50 41 -135 108 -182 155 -176
175 3 10 8 31 12 47 13 59 29 65 83 36z m81 -65 c0 -6 -7 0 -16 12 -8 12 -20
19 -26 16 -7 -5 -8 -2 -4 5 6 9 13 8 27 -5 10 -9 19 -22 19 -28z m452 -298
c77 -54 268 -209 287 -231 20 -25 -29 -8 -65 22 -226 190 -314 264 -314 268 0
6 14 -3 92 -59z m-459 5 c-7 -2 -21 -2 -30 0 -10 3 -4 5 12 5 17 0 24 -2 18
-5z m-329 -15 c14 -6 33 -22 42 -35 20 -32 45 -103 36 -103 -14 0 -57 33 -110
84 -44 43 -50 52 -35 58 26 10 39 9 67 -4z m259 2 c58 -51 155 -110 172 -106
11 3 27 1 35 -4 10 -6 -16 -7 -70 -2 -47 4 -111 7 -142 6 l-58 0 -17 44 c-16
43 -16 45 2 58 22 17 61 18 78 4z m260 -127 c-7 -2 -19 -2 -25 0 -7 3 -2 5 12
5 14 0 19 -2 13 -5z m-2963 -79 c0 -8 -5 -12 -10 -9 -6 4 -8 11 -5 16 9 14 15
11 15 -7z m3564 -33 c-2 -3 -12 3 -22 13 -16 17 -16 18 5 5 12 -7 20 -15 17
-18z m-3577 -23 c-3 -7 -5 -2 -5 12 0 14 2 19 5 13 2 -7 2 -19 0 -25z m-1073
-121 c14 -8 23 -16 21 -19 -3 -3 6 -4 20 -3 14 2 25 -1 25 -7 0 -6 9 -8 20 -5
12 3 32 -1 47 -8 24 -13 24 -13 -22 -13 -25 0 -69 -3 -96 -7 -47 -7 -49 -6
-49 18 0 14 -3 32 -6 41 -8 20 5 20 40 3z m2786 -37 c0 -16 -46 -30 -100 -30
-52 0 -77 16 -38 24 13 3 32 7 43 9 40 9 95 7 95 -3z m-200 -10 c26 -17 -8
-30 -77 -30 -74 0 -84 16 -15 25 26 4 52 8 57 10 16 6 19 5 35 -5z m-2575 -90
c3 -5 0 -10 -7 -11 -7 -1 -2 -5 12 -9 19 -6 20 -8 6 -9 -13 -1 -17 -6 -13 -21
3 -11 0 -20 -6 -21 -7 0 -3 -4 8 -9 17 -7 17 -9 3 -9 -13 -1 -17 -9 -16 -28 1
-16 7 -32 13 -36 7 -6 6 -10 -2 -14 -7 -2 -14 -14 -14 -26 -2 -25 -27 134 -28
176 -1 20 4 27 18 27 11 0 23 -4 26 -10z m42 -22 c-3 -8 -6 -5 -6 6 -1 11 2
17 5 13 3 -3 4 -12 1 -19z m-37 -212 c0 -2 -7 -6 -15 -10 -8 -3 -15 -1 -15 4
0 6 7 10 15 10 8 0 15 -2 15 -4z m4750 -50 c0 -2 -7 -7 -16 -10 -8 -3 -12 -2
-9 4 6 10 25 14 25 6z m-2270 -137 c0 -6 -4 -7 -10 -4 -5 3 -10 11 -10 16 0 6
5 7 10 4 6 -3 10 -11 10 -16z m-642 -109 c54 -16 177 -44 275 -62 l179 -33 54
-94 c29 -52 52 -97 50 -100 -3 -4 -190 6 -418 21 -227 14 -446 27 -485 27 -40
1 -73 4 -73 8 0 17 65 103 112 150 53 51 156 112 191 113 11 0 62 -13 115 -30z
m687 -116 c99 -8 102 -10 76 -38 -21 -23 -28 -24 -97 -19 -70 6 -74 5 -74 -14
0 -12 7 -24 16 -27 8 -3 12 -10 9 -16 -8 -12 -25 -13 -25 -1 0 5 -16 37 -35
71 l-35 63 47 -6 c27 -4 80 -9 118 -13z m1501 -53 c13 -35 23 -66 21 -67 -5
-5 -376 11 -381 17 -2 2 -7 15 -11 29 l-6 25 163 31 c90 18 169 31 177 30 7 0
24 -30 37 -65z m-934 23 l257 -6 32 -29 33 -29 -55 0 c-97 1 -640 28 -644 32
-9 9 80 47 100 43 11 -2 136 -7 277 -11z m528 -40 c6 -14 10 -27 10 -30 0 -2
-26 -4 -57 -3 -52 0 -60 3 -81 30 l-24 29 71 0 c68 0 72 -1 81 -26z m-554 -59
c171 -8 329 -15 351 -15 40 0 42 -2 87 -71 52 -82 84 -165 68 -181 -7 -7 -111
-1 -315 16 -167 14 -312 26 -322 26 -15 0 -14 5 9 34 25 34 35 89 18 100 -5 3
-92 10 -193 17 -101 6 -186 14 -189 16 -3 3 13 22 36 42 37 36 44 38 90 35 27
-2 189 -11 360 -19z m522 -36 c-2 -6 -8 -10 -13 -10 -5 0 -11 4 -13 10 -2 6 4
11 13 11 9 0 15 -5 13 -11z m-2273 -9 c3 -5 -1 -10 -9 -10 -9 0 -16 5 -16 10
0 6 4 10 9 10 6 0 13 -4 16 -10z m2806 -9 l51 -6 -81 -96 c-44 -53 -95 -109
-113 -124 -32 -27 -35 -27 -123 -21 -56 5 -96 13 -106 22 -8 7 -27 14 -41 14
-20 0 -29 9 -43 43 -10 23 -25 49 -32 58 -12 14 -7 24 33 74 l47 57 179 -7
c99 -4 202 -10 229 -14z m-2277 -21 l390 -29 68 -68 c58 -58 66 -69 54 -82 -7
-9 -25 -42 -40 -75 -22 -50 -29 -58 -48 -53 -11 3 -33 0 -48 -8 -24 -12 -78
-8 -476 41 -247 30 -453 59 -458 64 -9 9 3 43 64 173 31 65 33 67 68 67 21 0
212 -14 426 -30z m586 -49 c0 -18 -18 -21 -30 -6 -10 13 -9 15 9 15 11 0 21
-4 21 -9z m292 -17 c87 -5 97 -8 88 -22 -29 -50 -31 -50 -121 -41 -47 4 -99
15 -115 24 -16 8 -35 15 -41 15 -14 0 -17 22 -6 34 4 4 28 5 53 2 25 -3 89 -8
142 -12z m-12 -151 c3 -3 -2 -10 -11 -16 -9 -7 -19 -22 -23 -34 -4 -12 -25
-40 -48 -64 l-41 -42 -76 7 c-53 4 -81 12 -93 24 -17 17 -17 20 1 72 l20 55
64 -3 c42 -2 67 1 72 8 5 8 26 10 69 5 33 -4 63 -9 66 -12z m-1417 -20 c-7 -2
-21 -2 -30 0 -10 3 -4 5 12 5 17 0 24 -2 18 -5z"/>
<path d="M3039 1167 c5 -5 19 -7 32 -5 20 3 19 5 -9 9 -20 3 -29 2 -23 -4z"/>
<path d="M2976 3444 c-3 -9 -6 -31 -6 -49 0 -31 2 -33 39 -37 l40 -3 -5 40
c-3 22 -7 46 -9 53 -6 17 -52 15 -59 -4z"/>
<path d="M2652 3202 c-12 -8 -20 -77 -9 -88 4 -4 7 3 7 16 0 23 1 23 14 5 12
-17 14 -15 14 23 1 44 -6 55 -26 44z m18 -22 c0 -5 -4 -10 -10 -10 -5 0 -10 5
-10 10 0 6 5 10 10 10 6 0 10 -4 10 -10z"/>
<path d="M2614 3186 c-5 -14 -9 -15 -15 -5 -12 21 -22 3 -10 -19 8 -14 6 -24
-5 -38 -14 -18 -14 -17 -12 16 3 30 0 35 -19 38 -19 3 -23 -1 -23 -26 0 -24
-4 -29 -22 -27 -37 4 -38 4 -38 16 0 5 5 7 10 4 6 -3 10 -1 10 6 0 7 -9 9 -22
5 -13 -3 -31 -6 -40 -6 -10 0 -18 -5 -18 -11 0 -5 5 -7 10 -4 14 9 12 -1 -6
-37 l-16 -31 43 7 c24 4 49 13 55 21 14 18 31 19 37 3 3 -7 6 -2 7 12 1 24 1
24 15 6 15 -20 45 -16 45 6 0 9 3 9 10 -2 13 -21 24 -6 12 17 -7 12 -7 25 0
37 5 9 7 20 4 23 -3 3 -9 -2 -12 -11z m-148 -70 c19 -19 18 -21 -11 -22 -28
-2 -28 -2 -19 20 8 20 12 20 30 2z"/>
<path d="M2020 3030 c0 -5 5 -10 11 -10 8 0 10 -13 6 -37 l-6 -37 31 31 c37
38 33 63 -12 63 -16 0 -30 -4 -30 -10z m50 -20 c0 -5 -4 -10 -10 -10 -5 0 -10
5 -10 10 0 6 5 10 10 10 6 0 10 -4 10 -10z"/>
<path d="M2145 3014 c-20 -22 -25 -38 -25 -80 0 -75 36 -107 74 -65 49 54 35
171 -20 171 -3 0 -16 -12 -29 -26z m55 -45 c0 -5 -4 -9 -10 -9 -5 0 -10 7 -10
16 0 8 5 12 10 9 6 -3 10 -10 10 -16z m-40 1 c0 -5 -5 -10 -11 -10 -5 0 -7 5
-4 10 3 6 8 10 11 10 2 0 4 -4 4 -10z m40 -39 c0 -6 -4 -13 -10 -16 -5 -3 -10
1 -10 9 0 9 5 16 10 16 6 0 10 -4 10 -9z m-40 -17 c0 -8 -4 -12 -10 -9 -5 3
-10 10 -10 16 0 5 5 9 10 9 6 0 10 -7 10 -16z"/>
<path d="M2488 3033 c6 -2 18 -2 25 0 6 3 1 5 -13 5 -14 0 -19 -2 -12 -5z"/>
<path d="M2068 2948 c-33 -11 -38 -32 -5 -23 21 6 21 6 -3 -14 -26 -21 -26
-22 5 -39 17 -10 18 -11 3 -12 -10 0 -18 -5 -18 -11 0 -12 49 -4 64 11 13 13
-2 30 -26 30 l-21 0 21 23 c27 29 17 47 -20 35z"/>
<path d="M2357 2912 c-10 -10 -17 -30 -17 -43 0 -14 -5 -30 -12 -37 -7 -7 -8
-12 -2 -12 14 0 66 55 58 62 -3 4 -1 16 6 27 14 27 -9 29 -33 3z"/>
<path d="M1780 2900 c-6 -12 -10 -40 -8 -63 2 -35 7 -43 26 -45 15 -2 22 -11
23 -25 1 -20 2 -21 6 -2 3 11 10 25 17 30 20 16 46 72 46 100 0 23 -3 25 -50
25 -39 0 -51 -4 -60 -20z"/>
<path d="M2208 2810 c-22 -31 -32 -73 -15 -67 9 3 57 81 57 92 0 15 -22 1 -42
-25z"/>
<path d="M2097 2824 c-4 -4 -7 -18 -7 -31 0 -12 -5 -23 -11 -23 -7 0 -9 10 -4
28 5 20 4 24 -5 16 -6 -6 -10 -24 -8 -40 4 -36 32 -39 36 -4 2 14 8 30 14 35
7 7 9 1 4 -17 -4 -18 -2 -28 4 -28 14 0 9 62 -6 67 -5 2 -13 0 -17 -3z"/>
<path d="M2173 2673 c-35 -20 -45 -32 -53 -66 -6 -23 -14 -50 -17 -61 -3 -10
-1 -17 3 -14 5 2 27 12 50 21 38 17 41 21 53 78 7 34 11 62 9 63 -2 2 -22 -8
-45 -21z"/>
<path d="M1765 2472 c-44 -5 -51 -19 -7 -14 49 5 58 7 47 13 -6 3 -23 3 -40 1z"/>
<path d="M1685 2460 c-3 -5 -1 -10 4 -10 6 0 11 5 11 10 0 6 -2 10 -4 10 -3 0
-8 -4 -11 -10z"/>
<path d="M1418 2353 c7 -3 16 -2 19 1 4 3 -2 6 -13 5 -11 0 -14 -3 -6 -6z"/>
<path d="M1932 2338 c-7 -7 -12 -29 -12 -50 0 -31 4 -38 20 -38 17 0 20 7 20
50 0 51 -6 60 -28 38z"/>
<path d="M2632 2305 c-47 -39 -74 -108 -75 -191 -1 -62 2 -77 25 -112 38 -57
87 -92 129 -92 74 0 107 54 116 189 5 75 3 93 -17 139 -39 90 -116 119 -178
67z m34 -131 c-6 -15 -46 -20 -46 -5 0 4 10 21 23 37 22 28 22 29 25 6 2 -13
1 -30 -2 -38z m94 0 c0 -8 -9 -14 -20 -14 -17 0 -20 7 -20 38 l1 37 19 -24
c11 -13 20 -29 20 -37z m-100 -114 c0 -37 -13 -39 -28 -5 -16 34 -15 35 8 35
16 0 20 -7 20 -30z m100 25 c0 -10 -30 -65 -35 -65 -3 0 -5 16 -5 35 0 28 4
35 20 35 11 0 20 -2 20 -5z"/>
<path d="M2431 2014 c-1 -6 8 -36 18 -67 l20 -57 -25 0 c-13 0 -24 5 -24 10 0
6 -9 10 -19 10 -11 0 -23 -4 -26 -10 -3 -5 -34 -10 -67 -10 -46 0 -64 4 -74
18 -11 14 -16 15 -33 5 -30 -19 -117 1 -124 28 -5 20 -37 27 -37 8 0 -6 -7 -9
-15 -5 -8 3 -15 1 -15 -4 0 -6 4 -10 10 -10 5 0 22 -18 36 -40 15 -23 35 -40
45 -40 22 0 23 4 9 31 -9 16 -7 19 12 18 46 -2 72 -15 78 -38 8 -34 56 -69 72
-53 10 10 9 19 -5 44 l-18 31 38 -7 c21 -3 50 -6 66 -6 15 0 27 -5 27 -12 0
-18 52 -68 70 -68 28 0 30 11 10 40 -25 35 -25 40 0 40 11 0 20 4 20 8 0 14
-48 148 -49 136z"/>
<path d="M3558 1113 c7 -3 16 -2 19 1 4 3 -2 6 -13 5 -11 0 -14 -3 -6 -6z"/>
<path d="M3723 1093 c9 -2 23 -2 30 0 6 3 -1 5 -18 5 -16 0 -22 -2 -12 -5z"/>
</g>
</svg>
